# xmcd
#
# Track frame offsets:
#	150
#	18075
#	38812
#	59751
#	78359
#	95210
#	109885
#	126197
#	143746
#	159074
#	176799
#	192232
#	206129
#	219788
#	236234
#	251376
#	264996
#	287569
#	301730
#	317779
#	333433
#
# Disc length: 4635 seconds
#
# Revision: 0
# Processed by: cddbd v1.5.2PL0 Copyright (c) Steve Scherf et al.
# Submitted via: dBpowerAMP V4.0
#
DISCID=2a121915
DTITLE=Various Artist - ERG Nu Country Traxx Vol. 221 CAN
DYEAR=2012
DGENRE=Country
TTITLE0=Taylor Swift - Begin Again
TTITLE1=Brad Paisley - Southern Comfort Zone
TTITLE2=Zac Brown Band  - Goodbye In Her Eyes
TTITLE3=Hey Romeo - Maybe You Remember Me Now
TTITLE4=Little Big Town - Tornado
TTITLE5=Johnny Reid  - Dedicated To You
TTITLE6=Josh Turner - Find Me A Baby
TTITLE7=Gloriana - Can't Shake You
TTITLE8=George Canyon - Rhinestone Cowboy
TTITLE9=Farm, The - Be Grateful
TTITLE10=Faith Hill - American Heart
TTITLE11=Terri Clark - Love Is A Rose
TTITLE12=High Valley - Love You For A Long Time
TTITLE13=Montgomery Gentry - I'll Keep The Kids
TTITLE14=Pear - This Ain't A Love Song
TTITLE15=Brett Aldredge - Don't Ya
TTITLE16=Kenny Chesney - El Cerrito Place
TTITLE17=Friday Night Satellites - Always Something Good
TTITLE18=Craig Campbell - Outta My Head
TTITLE19=Krysta Scoggins - I'll Carry You
TTITLE20=Uncle Kracker - Nobodys Sad On A Saturday Night
EXTD=
EXTT0=
EXTT1=
EXTT2=
EXTT3=
EXTT4=
EXTT5=
EXTT6=
EXTT7=
EXTT8=
EXTT9=
EXTT10=
EXTT11=
EXTT12=
EXTT13=
EXTT14=
EXTT15=
EXTT16=
EXTT17=
EXTT18=
EXTT19=
EXTT20=
PLAYORDER=
